<?xml version="1.0" encoding="utf-8"?>
<!-- Generator: Adobe Illustrator 27.0.0, SVG Export Plug-In . SVG Version: 6.00 Build 0)  -->
<svg version="1.1" id="Layer_1" xmlns="http://www.w3.org/2000/svg" xmlns:xlink="http://www.w3.org/1999/xlink" x="0px" y="0px"
	 viewBox="0 0 10000 2397.13" style="enable-background:new 0 0 10000 2397.13;" xml:space="preserve">
<style type="text/css">
	.st0{fill:#FFFFFF;}
</style>
<g>
	<path class="st0" d="M3101.7,897.85c0-53.46-20.13-213.08-54.94-309.9c-16.29,22.01-41.7,36.56-70.74,38.33
		c30.36,72.05,45.65,149.99,45.65,233.91c0,163.81-57.8,304.96-173.43,423.47c-115.62,118.53-254.88,177.78-417.69,177.78
		c-162.86,0-303.5-59.25-422.02-177.78c-118.52-118.5-177.77-259.66-177.77-423.47c0-163.76,59.25-304.94,177.77-423.47
		c17.51-17.51,35.57-33.57,54.05-48.49c-24.52-17.28-40.64-45.69-40.64-77.96c0-0.55,0.15-1.07,0.16-1.62
		c-28.17,20.93-55.36,44.3-81.5,70.26c-134.9,133.96-202.34,294.4-202.34,481.28c0,186.93,67.44,347.38,202.34,481.28
		c134.87,133.96,296.74,200.9,485.62,200.9c119.45,0,235.08-31.8,346.87-95.4c111.74-63.58,193.67-148.35,245.7-254.37v193.68
		c0,198.45-53.97,355.04-161.88,469.71c-107.95,114.62-246.69,171.99-416.25,171.99c-111.78,0-221.12-30.86-328.07-92.51
		c-66.02-38.07-121.21-82-165.56-131.8c-27.51-30.89-70.02,33.53-70.02,33.53c57.82,80.94,138.76,146.42,242.81,196.58
		c104.06,50.07,211.02,75.15,320.85,75.15c200.41,0,362.27-64.59,485.63-193.68c123.3-129.11,184.99-305.46,184.99-528.96
		L3101.7,897.85z"/>
	<path class="st0" d="M2970.22,435.96c-2.58,0-5.01,0.56-7.54,0.76c-31.4,2.5-58.37,19.91-73.85,45.45
		c-8.74,14.42-14.06,31.15-14.06,49.24c0,52.71,42.74,95.45,95.45,95.45c1.98,0,3.84-0.47,5.8-0.59
		c29.04-1.78,54.45-16.32,70.74-38.33c11.74-15.86,18.92-35.29,18.92-56.53C3065.67,478.69,3022.94,435.96,2970.22,435.96z"/>
	<path class="st0" d="M2211.79,299.93c-3.39-31.04-21.42-57.39-47.29-72.2c-13.95-7.99-29.89-12.91-47.12-12.91
		c-52.16,0-94.4,41.88-95.29,93.83c-0.01,0.55-0.16,1.07-0.16,1.62c0,32.28,16.12,60.68,40.64,77.96
		c15.53,10.94,34.37,17.49,54.81,17.49c52.71,0,95.45-42.73,95.45-95.45C2212.83,306.73,2212.16,303.37,2211.79,299.93z"/>
	<path class="st0" d="M1106.01,404.39l-0.02-0.02C980.37,278.74,827.18,215.04,650.67,215.04H99.43v1287.51h551.24
		c176.48,0,329.67-63.39,455.32-188.44c125.04-125.04,188.44-277.93,188.44-454.43C1294.43,683.2,1231.04,530.01,1106.01,404.39z
		 M650.67,1377.12H225.75V340.48h424.92c142.09,0,265.16,51.31,365.79,152.49c100.64,101.2,151.66,224.58,151.66,366.72
		c0,142.12-51.02,265.18-151.63,365.79C915.87,1326.1,792.8,1377.12,650.67,1377.12z"/>
	<path class="st0" d="M4969.87,214.82l-701.7,1335.77l-701.7-1335.77h110.94l590.76,1120.19l590.76-1120.19H4969.87z"/>
	<path class="st0" d="M5690.51,166.11c179.78,0,335.82,61.04,468.09,183.1c131.68,120.87,205.64,269.67,221.88,446.44
		c2.4,24.67,3.6,46.01,3.6,64.06l-0.9,18.03l-0.9,17.13H5097.95c9.01,156.36,70.35,288.62,183.99,396.86
		c114.83,108.24,251.03,162.35,408.57,162.35c119.64,0,229.39-33.38,329.2-100.11c96.81-64.93,168.36-150.62,214.66-257.06h105.53
		c-49.3,134.71-132.29,243.85-248.92,327.42c-119.66,85.96-253.15,128.97-400.46,128.97c-191.21,0-354.77-67.95-490.65-203.83
		c-135.29-135.29-202.94-298.54-202.94-489.75c0-191.23,67.65-354.48,202.94-489.75C5335.75,234.08,5499.3,166.11,5690.51,166.11z
		 M6281.27,795.65c-16.24-149.7-80.27-275.38-192.12-377.01c-113.64-102.21-246.53-153.32-398.65-153.32
		c-152.74,0-285.61,51.12-398.66,153.32c-112.44,101.62-176.47,227.31-192.1,377.01H6281.27z"/>
	<path class="st0" d="M7162.46,165.21c51.71,0,102.51,6.64,152.43,19.85v102.82c-49.92-16.23-100.72-24.35-152.43-24.35
		c-136.5,0-252.84,48.41-349.04,145.22c-96.82,96.81-145.21,213.46-145.21,349.95v744.09h-99.21V758.7
		c0-163.56,58.01-303.36,174.08-419.41C6859.11,223.26,6998.9,165.21,7162.46,165.21z"/>
	<path class="st0" d="M7462.79,1408.97l54.11-82.96c132.28,85.37,257.06,128.07,374.3,128.07c108.24,0,193.03-28.27,254.34-84.79
		c53.52-49.9,80.29-112.13,80.29-186.7c0-90.77-40-165.63-119.97-224.58c-48.71-35.47-139.19-78.46-271.47-128.97l-69.46-27.05
		c-25.86-10.22-48.71-19.54-68.54-27.95c-49.31-22.24-89.9-45.11-121.77-68.56c-79.97-57.71-119.97-129.87-119.97-216.46
		c0-113.03,46.91-198.43,140.72-256.14c70.94-43.89,153.62-65.86,248.01-65.86c108.83,0,205.34,14.13,289.52,42.4
		c27.08,8.42,51.43,18.03,73.06,28.86c6.62,3.6,12.63,7.22,18.05,10.83c2.39,1.22,4.19,2.12,5.4,2.7l1.8,1.8h0.9l-56.81,81.19
		l-0.9-0.9c-1.22-0.61-2.7-1.22-4.52-1.8c-4.21-2.41-9-5.11-14.43-8.13c-18.03-8.42-38.49-16.23-61.33-23.45
		c-72.75-22.85-156.34-34.28-250.74-34.28h-20.73c-12.04,1.22-24.35,2.41-36.98,3.62c-36.08,5.4-68.85,14.13-98.31,26.15
		c-89,37.27-133.49,101.62-133.49,193c0,54.72,27.98,101.62,83.89,140.7c40.87,28.27,118.14,64.03,231.81,107.34l40.58,15.33
		l40.58,16.23c30.07,12.04,56.83,23.45,80.26,34.28c58.93,27.05,107.63,55.62,146.12,85.69c98.61,75.76,147.92,173.78,147.92,294.02
		c0,99.21-35.18,183.42-105.54,252.54c-79.97,78.78-189.4,118.17-328.3,118.17C7754.71,1553.29,7611.9,1505.17,7462.79,1408.97z"/>
	<path class="st0" d="M9162.94,166.11c179.75,0,335.82,61.04,468.07,183.1c131.72,120.87,205.68,269.67,221.88,446.44
		c2.39,24.67,3.6,46.01,3.6,64.06l-0.9,18.03l-0.9,17.13H8570.37c9,156.36,70.34,288.62,183.96,396.86
		c114.88,108.24,251.05,162.35,408.61,162.35c119.65,0,229.35-33.38,329.2-100.11c96.78-64.93,168.36-150.62,214.63-257.06h105.56
		c-49.34,134.71-132.3,243.85-248.94,327.42c-119.7,85.96-253.17,128.97-400.46,128.97c-191.23,0-354.77-67.95-490.65-203.83
		c-135.29-135.29-202.95-298.54-202.95-489.75c0-191.23,67.66-354.48,202.95-489.75C8808.17,234.08,8971.71,166.11,9162.94,166.11z
		 M9753.68,795.65c-16.21-149.7-80.26-275.38-192.08-377.01c-113.66-102.21-246.55-153.32-398.66-153.32
		c-152.74,0-285.62,51.12-398.66,153.32c-112.45,101.62-176.48,227.31-192.1,377.01H9753.68z"/>
	<g>
		<path class="st0" d="M1830.42,1546.16c-90.73,0-164.54,74.4-164.54,165.85c0,91.47,73.81,165.89,164.54,165.89
			c90.74,0,164.55-74.42,164.55-165.89C1994.97,1620.56,1921.16,1546.16,1830.42,1546.16z M1944.13,1712.02
			c0,63.22-51.01,114.64-113.71,114.64s-113.71-51.43-113.71-114.64c0-63.2,51.01-114.61,113.71-114.61
			S1944.13,1648.82,1944.13,1712.02z"/>
		<ellipse class="st0" cx="1830.43" cy="1712.03" rx="81.88" ry="82.54"/>
	</g>
	<path class="st0" d="M3118.99,897.7c-0.01-11.57-0.9-27.57-2.58-46.34l-1.36-15.17l-15.22-0.56c-21.39-0.9-22.47-0.65-80.56,7.43
		l-14.9,2.09v15.04c0,158.39-56.7,296.81-168.52,411.42c-33.44,34.28-69.37,63.81-106.8,87.78l-12.83,8.22l6.54,13.77
		c17.16,36.1,19.73,41.95,21.01,44.9c1.33,3.04,1.32,3.04,13.81,28.34l8.11,16.43l15.92-9.05
		c93.2-53.03,166.92-121.34,219.87-203.65v145.15l17.23,0.07c34.55,0.14,92.57,0,92.59,0l17.59-0.04L3118.99,897.7z"/>
	<g>
		<rect x="1454.15" y="405.71" class="st0" width="99.21" height="1097.07"/>
		<rect x="1454.15" y="214.82" class="st0" width="99.21" height="104.56"/>
	</g>
	<g>
		<rect x="3309.43" y="405.71" class="st0" width="99.21" height="1097.07"/>
		<rect x="3309.43" y="214.82" class="st0" width="99.21" height="104.56"/>
	</g>
</g>
</svg>
